<svg width="223" height="35" viewBox="0 0 223 35" fill="none" xmlns="http://www.w3.org/2000/svg">
<g clip-path="url(#clip0_2214_11752)">
<path d="M186.417 4.40039L198.065 33.1625H194.17L191.848 27.441H176.679L174.357 33.1238H171.997L183.645 4.40039H186.417ZM177.166 26.2426H191.361L184.245 8.76883L177.166 26.2426Z" fill="white"/>
<path d="M157.266 9.19407C157.266 10.3023 157.49 11.3203 157.94 12.2481C158.414 13.1501 159.026 13.9362 159.775 14.6063C160.524 15.2764 161.348 15.9207 162.247 16.5392C163.146 17.1578 164.045 17.7763 164.944 18.3948C165.843 19.0134 166.667 19.6577 167.416 20.3278C168.165 20.9721 168.764 21.7453 169.213 22.6473C169.688 23.5236 169.925 24.4772 169.925 25.5081C169.925 27.1833 169.476 28.6652 168.577 29.9538C167.703 31.2424 166.604 32.196 165.281 32.8146C163.957 33.4073 162.547 33.7037 161.048 33.7037C160.224 33.7037 159.4 33.5877 158.576 33.3558C157.777 33.1496 157.091 32.8919 156.517 32.5826C155.942 32.2733 155.418 31.9641 154.943 31.6548C154.494 31.3197 154.144 31.0491 153.895 30.843L153.558 30.495L154.531 27.9822C155.131 28.8069 155.905 29.5543 156.854 30.2244C157.827 30.8945 158.826 31.3713 159.85 31.6548C160.899 31.9125 161.872 32.0027 162.771 31.9254C163.695 31.8223 164.444 31.3842 165.019 30.611C165.618 29.8121 165.918 28.7296 165.918 27.3637C165.918 26.4101 165.693 25.5209 165.243 24.6962C164.794 23.8715 164.207 23.1499 163.483 22.5313C162.784 21.9128 161.997 21.32 161.123 20.753C160.274 20.1603 159.413 19.5675 158.539 18.9747C157.665 18.382 156.866 17.7505 156.142 17.0805C155.443 16.4104 154.869 15.6114 154.419 14.6836C153.97 13.7558 153.745 12.7378 153.745 11.6296C153.745 11.1141 153.807 10.5729 153.932 10.0059C154.057 9.41314 154.294 8.78171 154.644 8.11163C155.018 7.41577 155.48 6.81012 156.03 6.29467C156.604 5.75345 157.378 5.30243 158.352 4.94161C159.326 4.5808 160.424 4.40039 161.648 4.40039C162.871 4.40039 163.97 4.49059 164.944 4.671C165.918 4.85141 166.667 5.07048 167.191 5.3282C167.715 5.56015 168.14 5.80499 168.464 6.06272C168.814 6.32044 169.051 6.53951 169.176 6.71991L169.326 6.99053L167.64 9.61932C167.191 8.82037 166.542 8.11163 165.693 7.49309C164.844 6.87455 163.945 6.4493 162.996 6.21735C162.047 5.9854 161.136 5.8952 160.262 5.94674C159.388 5.99829 158.664 6.30756 158.09 6.87455C157.54 7.44154 157.266 8.21472 157.266 9.19407Z" fill="white"/>
<path d="M139.343 4.40039L150.992 33.1625H147.096L144.774 27.441H129.605L127.283 33.1238H124.923L136.572 4.40039H139.343ZM130.092 26.2426H144.287L137.171 8.76883L130.092 26.2426Z" fill="white"/>
<path d="M122.146 28.6008L122.782 29.1033C122.732 29.2322 122.658 29.3997 122.558 29.6059C122.458 29.8121 122.171 30.1858 121.696 30.727C121.222 31.2682 120.66 31.745 120.011 32.1574C119.387 32.5439 118.475 32.9048 117.277 33.2398C116.103 33.5748 114.805 33.7424 113.381 33.7424C111.259 33.7424 109.311 33.446 107.539 32.8532C105.766 32.2604 104.193 31.3842 102.819 30.2244C101.471 29.0389 100.41 27.4925 99.6357 25.5854C98.8616 23.6524 98.4746 21.4618 98.4746 19.0134C98.4746 17.0547 98.7618 15.2506 99.3361 13.6012C99.9104 11.9517 100.659 10.5729 101.583 9.46468C102.507 8.35647 103.543 7.41577 104.692 6.6426C105.866 5.84365 107.027 5.27666 108.175 4.94161C109.324 4.5808 110.435 4.40039 111.509 4.40039C112.932 4.40039 114.293 4.50348 115.591 4.70966C116.89 4.91584 117.951 5.16068 118.775 5.44418C119.599 5.72767 120.323 6.02406 120.947 6.33333C121.571 6.61683 122.021 6.84878 122.296 7.02918L122.708 7.33845L121.771 10.5858C121.746 10.5085 121.709 10.4183 121.659 10.3152C121.609 10.2121 121.459 10.0059 121.209 9.69664C120.985 9.38737 120.71 9.10387 120.385 8.84614C120.086 8.56265 119.649 8.25338 119.074 7.91833C118.525 7.58329 117.901 7.29979 117.202 7.06784C116.528 6.81012 115.679 6.60394 114.655 6.4493C113.656 6.2689 112.582 6.17869 111.434 6.17869C110.06 6.17869 108.824 6.46219 107.726 7.02918C106.652 7.57041 105.791 8.27915 105.141 9.15541C104.492 10.0059 103.955 11.011 103.531 12.1708C103.106 13.3306 102.807 14.4645 102.632 15.5728C102.482 16.6552 102.407 17.7634 102.407 18.8974C102.407 22.7633 103.481 25.9848 105.628 28.5621C107.801 31.1136 110.472 32.3893 113.644 32.3893C114.967 32.3893 116.165 32.2604 117.239 32.0027C118.313 31.7192 119.137 31.3971 119.711 31.0362C120.285 30.6754 120.772 30.3146 121.172 29.9538C121.571 29.5672 121.834 29.2451 121.958 28.9873L122.146 28.6008Z" fill="white"/>
<path d="M89.7039 4.40039H92.1384L91.8013 33.1238L71.3138 13.4852L71.1266 33.1238H68.7295L68.9917 4.47771L89.5166 25.624L89.7039 4.40039Z" fill="white"/>
<path d="M48.0053 3.82031C50.6271 3.82031 53.0367 4.4904 55.234 5.83057C57.4563 7.14496 59.2042 8.94904 60.4776 11.2428C61.776 13.5365 62.4252 16.0236 62.4252 18.7039C62.4252 21.41 61.776 23.91 60.4776 26.2037C59.2042 28.4717 57.4563 30.2758 55.234 31.6159C53.0367 32.9303 50.6271 33.5875 48.0053 33.5875C45.3835 33.5875 42.9615 32.9303 40.7392 31.6159C38.5419 30.2758 36.794 28.4717 35.4956 26.2037C34.2222 23.91 33.5854 21.41 33.5854 18.7039C33.5854 16.0236 34.2222 13.5365 35.4956 11.2428C36.794 8.94904 38.5419 7.14496 40.7392 5.83057C42.9615 4.4904 45.3835 3.82031 48.0053 3.82031ZM57.8183 19.2451C57.9432 16.7452 57.6186 14.4257 56.8445 12.2866C56.0705 10.1475 54.9593 8.43359 53.5111 7.14496C52.0629 5.83057 50.4523 5.12182 48.6795 5.01873C46.9067 4.94142 45.2337 5.46975 43.6606 6.60374C42.1125 7.73773 40.8391 9.33562 39.8403 11.3974C38.8665 13.4334 38.3172 15.7014 38.1923 18.2014C38.0675 20.6755 38.3921 22.995 39.1661 25.1599C39.9402 27.299 41.0513 29.0258 42.4996 30.3402C43.9478 31.6288 45.5583 32.3247 47.3312 32.4278C49.104 32.5051 50.7645 31.9767 52.3126 30.8428C53.8856 29.7088 55.1591 28.1109 56.1329 26.0491C57.1317 23.9873 57.6935 21.7193 57.8183 19.2451Z" fill="white"/>
<path d="M27.3767 5.56015L30.0734 33.1238H26.6276L24.6051 12.2481L15.9157 33.1238H12.9194L5.24123 12.4414L3.21871 33.1238H0.78418L3.33107 7.2998L2.28235 4.40039H5.95287L14.9793 28.8327L25.1294 4.40039H27.8636L27.3767 5.56015Z" fill="white"/>
</g>
<g clip-path="url(#clip1_2214_11752)">
<path d="M220.576 0L219.347 1.90483L213.863 10.4056L208.38 1.90483L207.15 0H205V19.0912H206.691V2.46744L208.38 5.08759V19.0912H219.347V5.08759L221.038 2.46744V19.0912H222.726V0H220.576Z" fill="#713131"/>
<g clip-path="url(#clip2_2214_11752)">
<path d="M220.576 0L219.347 1.90483L213.863 10.4056L208.38 1.90483L207.15 0H205V19.0912H206.691V2.46744L208.38 5.08759V19.0912H219.347V5.08759L221.038 2.46744V19.0912H222.726V0H220.576Z" fill="white"/>
</g>
</g>
<defs>
<clipPath id="clip0_2214_11752">
<rect width="198.066" height="31.8187" fill="white" transform="translate(0 3.18164)"/>
</clipPath>
<clipPath id="clip1_2214_11752">
<rect width="17.7257" height="19.0912" fill="white" transform="translate(205)"/>
</clipPath>
<clipPath id="clip2_2214_11752">
<rect width="17.7257" height="19.0912" fill="white" transform="translate(205)"/>
</clipPath>
</defs>
</svg>
